{
  "accessors": [
    {
      "bufferView": 2,
      "componentType": 5126,
      "count": 65532,
      "max": [
        89.76778411865234,
        89.76417541503906,
        24.39776611328125
      ],
      "min": [
        -89.90916442871094,
        -89.91276550292969,
        6.223237037658691
      ],
      "type": "VEC3"
    },
    {
      "bufferView": 2,
      "byteOffset": 786384,
      "componentType": 5126,
      "count": 65532,
      "max": [
        0.9999496936798096,
        0.999949038028717,
        1.0
      ],
      "min": [
        -0.9999496936798096,
        -0.9999496936798096,
        -1.0
      ],
      "type": "VEC3"
    },
    {
      "bufferView": 1,
      "componentType": 5126,
      "count": 65532,
      "max": [
        0.8717543482780457,
        0.7249137759208679
      ],
      "min": [
        0.13682764768600464,
        0.0005803604144603014
      ],
      "type": "VEC2"
    },
    {
      "bufferView": 0,
      "componentType": 5125,
      "count": 252723,
      "type": "SCALAR"
    },
    {
      "bufferView": 2,
      "byteOffset": 1572768,
      "componentType": 5126,
      "count": 65532,
      "max": [
        96.28337097167969,
        96.27639770507813,
        27.01057243347168
      ],
      "min": [
        -96.18339538574219,
        -96.19032287597656,
        -2.6346817016601563
      ],
      "type": "VEC3"
    },
    {
      "bufferView": 2,
      "byteOffset": 2359152,
      "componentType": 5126,
      "count": 65532,
      "max": [
        0.9999491572380066,
        0.9999489188194275,
        1.0
      ],
      "min": [
        -0.9999497532844543,
        -0.9999496936798096,
        -1.0
      ],
      "type": "VEC3"
    },
    {
      "bufferView": 1,
      "byteOffset": 524256,
      "componentType": 5126,
      "count": 65532,
      "max": [
        1.0,
        0.7249137759208679
      ],
      "min": [
        -1.9689698022652734e-15,
        0.0005803604144603014
      ],
      "type": "VEC2"
    },
    {
      "bufferView": 0,
      "byteOffset": 1010892,
      "componentType": 5125,
      "count": 248214,
      "type": "SCALAR"
    },
    {
      "bufferView": 2,
      "byteOffset": 3145536,
      "componentType": 5126,
      "count": 65532,
      "max": [
        81.30609893798828,
        81.31848907470703,
        20.985048294067383
      ],
      "min": [
        -81.44747924804688,
        -81.45108795166016,
        3.1077840328216553
      ],
      "type": "VEC3"
    },
    {
      "bufferView": 2,
      "byteOffset": 3931920,
      "componentType": 5126,
      "count": 65532,
      "max": [
        0.9999487400054932,
        0.9999486804008484,
        1.0
      ],
      "min": [
        -0.9999492168426514,
        -0.9999500513076782,
        -1.0
      ],
      "type": "VEC3"
    },
    {
      "bufferView": 1,
      "byteOffset": 1048512,
      "componentType": 5126,
      "count": 65532,
      "max": [
        0.8717543482780457,
        0.7249137759208679
      ],
      "min": [
        0.13682764768600464,
        0.0005803604144603014
      ],
      "type": "VEC2"
    },
    {
      "bufferView": 0,
      "byteOffset": 2003748,
      "componentType": 5125,
      "count": 252750,
      "type": "SCALAR"
    },
    {
      "bufferView": 2,
      "byteOffset": 4718304,
      "componentType": 5126,
      "count": 65532,
      "max": [
        90.31847381591797,
        90.32048797607422,
        20.12969398498535
      ],
      "min": [
        -90.3206787109375,
        -90.31926727294922,
        -2.7011098861694336
      ],
      "type": "VEC3"
    },
    {
      "bufferView": 2,
      "byteOffset": 5504688,
      "componentType": 5126,
      "count": 65532,
      "max": [
        0.9999688863754272,
        0.9999589323997498,
        1.0
      ],
      "min": [
        -0.9999688863754272,
        -0.9999657273292542,
        -1.0
      ],
      "type": "VEC3"
    },
    {
      "bufferView": 1,
      "byteOffset": 1572768,
      "componentType": 5126,
      "count": 65532,
      "max": [
        0.875,
        1.0
      ],
      "min": [
        0.125,
        -7.450580596923828e-08
      ],
      "type": "VEC2"
    },
    {
      "bufferView": 0,
      "byteOffset": 3014748,
      "componentType": 5125,
      "count": 204678,
      "type": "SCALAR"
    },
    {
      "bufferView": 2,
      "byteOffset": 6291072,
      "componentType": 5126,
      "count": 65534,
      "max": [
        90.31847381591797,
        90.32048797607422,
        24.39776611328125
      ],
      "min": [
        -90.3206787109375,
        -90.31669616699219,
        -2.7011098861694336
      ],
      "type": "VEC3"
    },
    {
      "bufferView": 2,
      "byteOffset": 7077480,
      "componentType": 5126,
      "count": 65534,
      "max": [
        1.0,
        0.9999999403953552,
        1.0
      ],
      "min": [
        -0.9999996423721313,
        -0.9999999403953552,
        -1.0
      ],
      "type": "VEC3"
    },
    {
      "bufferView": 1,
      "byteOffset": 2097024,
      "componentType": 5126,
      "count": 65534,
      "max": [
        0.8717543482780457,
        0.9875012636184692
      ],
      "min": [
        0.13682764768600464,
        -1.0244548320770264e-08
      ],
      "type": "VEC2"
    },
    {
      "bufferView": 0,
      "byteOffset": 3833460,
      "componentType": 5125,
      "count": 130701,
      "type": "SCALAR"
    },
    {
      "bufferView": 2,
      "byteOffset": 7863888,
      "componentType": 5126,
      "count": 65532,
      "max": [
        88.67086791992188,
        87.10145568847656,
        22.126815795898438
      ],
      "min": [
        -96.18339538574219,
        -96.19032287597656,
        -1.847382664680481
      ],
      "type": "VEC3"
    },
    {
      "bufferView": 2,
      "byteOffset": 8650272,
      "componentType": 5126,
      "count": 65532,
      "max": [
        1.0,
        0.9999774694442749,
        1.0
      ],
      "min": [
        -0.9999997019767761,
        -0.9999991059303284,
        -1.0
      ],
      "type": "VEC3"
    },
    {
      "bufferView": 1,
      "byteOffset": 2621296,
      "componentType": 5126,
      "count": 65532,
      "max": [
        1.0,
        1.0
      ],
      "min": [
        0.0,
        -1.0244548320770264e-08
      ],
      "type": "VEC2"
    },
    {
      "bufferView": 0,
      "byteOffset": 4356264,
      "componentType": 5125,
      "count": 113019,
      "type": "SCALAR"
    },
    {
      "bufferView": 2,
      "byteOffset": 9436656,
      "componentType": 5126,
      "count": 11452,
      "max": [
        96.28337097167969,
        96.27639770507813,
        27.01057243347168
      ],
      "min": [
        -96.1264877319336,
        -95.3587875366211,
        -2.6346817016601563
      ],
      "type": "VEC3"
    },
    {
      "bufferView": 2,
      "byteOffset": 9574080,
      "componentType": 5126,
      "count": 11452,
      "max": [
        0.9999478459358215,
        0.9999473094940186,
        1.0
      ],
      "min": [
        -0.9999464750289917,
        -0.9999464750289917,
        -1.0
      ],
      "type": "VEC3"
    },
    {
      "bufferView": 1,
      "byteOffset": 3145552,
      "componentType": 5126,
      "count": 11452,
      "max": [
        1.0,
        1.0
      ],
      "min": [
        -1.0263115362988198e-14,
        0.0
      ],
      "type": "VEC2"
    },
    {
      "bufferView": 0,
      "byteOffset": 4808340,
      "componentType": 5125,
      "count": 19497,
      "type": "SCALAR"
    }
  ],
  "asset": {
    "extras": {
      "author": "Vladyslav Holhanov (https://sketchfab.com/vladicom08)",
      "license": "CC-BY-4.0 (http://creativecommons.org/licenses/by/4.0/)",
      "source": "https://sketchfab.com/3d-models/stadium-0525fcd93d8c4acdbca4dd7be273acbf",
      "title": "Stadium"
    },
    "generator": "Sketchfab-12.67.0",
    "version": "2.0"
  },
  "bufferViews": [
    {
      "buffer": 0,
      "byteLength": 4886328,
      "name": "floatBufferViews",
      "target": 34963
    },
    {
      "buffer": 0,
      "byteLength": 3237168,
      "byteOffset": 4886328,
      "byteStride": 8,
      "name": "floatBufferViews",
      "target": 34962
    },
    {
      "buffer": 0,
      "byteLength": 9711504,
      "byteOffset": 8123496,
      "byteStride": 12,
      "name": "floatBufferViews",
      "target": 34962
    }
  ],
  "buffers": [
    {
      "byteLength": 17835000,
      "uri": "scene.bin"
    }
  ],
  "materials": [
    {
      "doubleSided": true,
      "name": "lambert1",
      "pbrMetallicRoughness": {
        "baseColorFactor": [
          0.5,
          0.5,
          0.5,
          1.0
        ],
        "metallicFactor": 0.0,
        "roughnessFactor": 0.6
      }
    }
  ],
  "meshes": [
    {
      "name": "p21_lambert1_0",
      "primitives": [
        {
          "attributes": {
            "NORMAL": 1,
            "POSITION": 0,
            "TEXCOORD_0": 2
          },
          "indices": 3,
          "material": 0,
          "mode": 4
        }
      ]
    },
    {
      "name": "p21_lambert1_0",
      "primitives": [
        {
          "attributes": {
            "NORMAL": 5,
            "POSITION": 4,
            "TEXCOORD_0": 6
          },
          "indices": 7,
          "material": 0,
          "mode": 4
        }
      ]
    },
    {
      "name": "p21_lambert1_0",
      "primitives": [
        {
          "attributes": {
            "NORMAL": 9,
            "POSITION": 8,
            "TEXCOORD_0": 10
          },
          "indices": 11,
          "material": 0,
          "mode": 4
        }
      ]
    },
    {
      "name": "p21_lambert1_0",
      "primitives": [
        {
          "attributes": {
            "NORMAL": 13,
            "POSITION": 12,
            "TEXCOORD_0": 14
          },
          "indices": 15,
          "material": 0,
          "mode": 4
        }
      ]
    },
    {
      "name": "p21_lambert1_0",
      "primitives": [
        {
          "attributes": {
            "NORMAL": 17,
            "POSITION": 16,
            "TEXCOORD_0": 18
          },
          "indices": 19,
          "material": 0,
          "mode": 4
        }
      ]
    },
    {
      "name": "p21_lambert1_0",
      "primitives": [
        {
          "attributes": {
            "NORMAL": 21,
            "POSITION": 20,
            "TEXCOORD_0": 22
          },
          "indices": 23,
          "material": 0,
          "mode": 4
        }
      ]
    },
    {
      "name": "p21_lambert1_0",
      "primitives": [
        {
          "attributes": {
            "NORMAL": 25,
            "POSITION": 24,
            "TEXCOORD_0": 26
          },
          "indices": 27,
          "material": 0,
          "mode": 4
        }
      ]
    }
  ],
  "nodes": [
    {
      "children": [
        1
      ],
      "matrix": [
        1.0,
        0.0,
        0.0,
        0.0,
        0.0,
        2.220446049250313e-16,
        -1.0,
        0.0,
        0.0,
        1.0,
        2.220446049250313e-16,
        0.0,
        0.0,
        0.0,
        0.0,
        1.0
      ],
      "name": "Sketchfab_model"
    },
    {
      "children": [
        2
      ],
      "matrix": [
        1.0,
        0.0,
        0.0,
        0.0,
        0.0,
        0.0,
        1.0,
        0.0,
        0.0,
        -1.0,
        0.0,
        0.0,
        0.0,
        0.0,
        0.0,
        1.0
      ],
      "name": "ac8b56c8077a43ea837fdba88f7ef9c2.fbx"
    },
    {
      "children": [
        3
      ],
      "name": "RootNode"
    },
    {
      "children": [
        4,
        5,
        6,
        7,
        8,
        9,
        10
      ],
      "matrix": [
        1.0,
        0.0,
        0.0,
        0.0,
        0.0,
        2.220446049250313e-16,
        -1.0,
        0.0,
        0.0,
        1.0,
        2.220446049250313e-16,
        0.0,
        0.0,
        0.0,
        0.0,
        1.0
      ],
      "name": "p21"
    },
    {
      "mesh": 0,
      "name": "p21_lambert1_0"
    },
    {
      "mesh": 1,
      "name": "p21_lambert1_0"
    },
    {
      "mesh": 2,
      "name": "p21_lambert1_0"
    },
    {
      "mesh": 3,
      "name": "p21_lambert1_0"
    },
    {
      "mesh": 4,
      "name": "p21_lambert1_0"
    },
    {
      "mesh": 5,
      "name": "p21_lambert1_0"
    },
    {
      "mesh": 6,
      "name": "p21_lambert1_0"
    }
  ],
  "scene": 0,
  "scenes": [
    {
      "name": "Sketchfab_Scene",
      "nodes": [
        0
      ]
    }
  ]
}
